<svg xmlns="http://www.w3.org/2000/svg" viewBox="0 0 79.99 80"><defs><style>.cls-1{fill:#fff;}</style></defs><g id="Capa_2" data-name="Capa 2"><g id="Capa_1-2" data-name="Capa 1"><path class="cls-1" d="M40.05,0A40,40,0,0,0,5.42,59.91L0,80l20.93-5A39.83,39.83,0,0,0,40,79.91h0A40,40,0,0,0,40.05,0Zm0,8A32,32,0,1,1,24.77,68l-2.7-1.47-3,.71-7.87,1.85L13.14,62l.87-3.2-1.66-2.87A32,32,0,0,1,40,8ZM25.91,21.5a3.68,3.68,0,0,0-2.67,1.25,11.2,11.2,0,0,0-3.5,8.32c0,4.91,3.58,9.66,4.08,10.33s6.91,11.06,17.06,15.06c8.43,3.32,10.14,2.67,12,2.5s5.91-2.41,6.74-4.74.84-4.34.59-4.75-.91-.67-1.91-1.17-5.91-2.91-6.82-3.24-1.59-.5-2.25.5S46.62,48.8,46,49.47s-1.16.76-2.16.26a27.67,27.67,0,0,1-8-5,30.25,30.25,0,0,1-5.55-6.91c-.58-1-.06-1.54.44-2s1-1.17,1.5-1.75a7.41,7.41,0,0,0,1-1.66,1.85,1.85,0,0,0-.09-1.75c-.25-.5-2.19-5.43-3.08-7.41-.75-1.66-1.54-1.7-2.25-1.73S26.57,21.5,25.91,21.5Z"/></g></g></svg>